<?xml version="1.0" encoding="utf-8"?>
<svg version="1.1" id="circleButton" xmlns="http://www.w3.org/2000/svg" xmlns:xlink="http://www.w3.org/1999/xlink" x="0px"
        y="0px" viewBox="0 0 741.02 715.18" enable-background="new 0 0 741.02 715.18" xml:space="preserve">
<g id="goFa">
    <circle id="buttonPlay_1_" fill="#FFFFFF" cx="366" cy="355.75" r="310.75"/>
    <path id="moveCircle" fill="#3E3E3E" d="M373.34,652C202.38,667.07,68.51,523.33,76,351.87C81.75,220.28,205.67,69.36,377.09,61
        C544.76,52.83,653.14,184.61,666,355.75C678.25,518.83,537.24,637.55,373.34,652z M716.54,352.45c0-69.45,8.34-130.51-56.68-187.8
        C574.79,89.7,555.5-30.34,379,25C263.01,61.37,110.29,55.2,89.2,173.21c-10.78,60.33-59.15,113.85-59.41,179.65
        C29.36,463.13,104.5,608.5,158.5,635.5c63.48,31.74,142.35,56.2,218.79,56.2c54.22,0,113.13-1.43,150.92-35.33
        C632.45,562.86,716.54,485.6,716.54,352.45z"/>
</g>
<g>
    <path d="M239.5,291.75c10.16,5.67,18.13,13.59,23.88,23.75c5.75,10.17,8.63,21.92,8.63,35.25c0,13.34-2.88,25.13-8.63,35.38
        S249.66,404.34,239.5,410c-10.17,5.67-21.67,8.5-34.5,8.5c-9.5,0-18.21-1.83-26.13-5.5c-4.51-2.09-8.63-4.72-12.36-7.89
        c-3.06-2.6-7.77-0.35-7.77,3.67v51.97c0,2.62-2.13,4.75-4.75,4.75h-14.5c-2.62,0-4.75-2.13-4.75-4.75v-171.5
        c0-2.62,2.13-4.75,4.75-4.75H153c2.62,0,4.75,2.13,4.75,4.75v4.03c0,4.05,4.78,6.28,7.83,3.61c3.69-3.24,7.83-5.91,12.42-8.01
        c8.16-3.75,17.16-5.63,27-5.63C217.83,283.25,229.33,286.09,239.5,291.75z M225.88,391.63c6.75-3.91,12.08-9.41,16-16.5
        c3.91-7.08,5.88-15.21,5.88-24.38c0-9.16-1.96-17.29-5.88-24.38c-3.92-7.08-9.25-12.54-16-16.38c-6.75-3.83-14.38-5.75-22.88-5.75
        c-8.34,0-15.88,1.96-22.63,5.88c-6.75,3.92-12.09,9.38-16,16.38c-3.92,7-5.88,15.09-5.88,24.25c0,9.17,1.91,17.29,5.75,24.38
        c3.83,7.09,9.16,12.59,16,16.5c6.83,3.92,14.41,5.88,22.75,5.88C211.5,397.5,219.13,395.54,225.88,391.63z"/>
    <path d="M310,231.5h14.5c2.62,0,4.75,2.13,4.75,4.75v176c0,2.62-2.13,4.75-4.75,4.75H310c-2.62,0-4.75-2.13-4.75-4.75v-176
        C305.25,233.63,307.37,231.5,310,231.5z"/>
    <path d="M465.37,296.75c9.75,9,14.63,22.42,14.63,40.25v75.25c0,2.62-2.13,4.75-4.75,4.75H462c-2.62,0-4.75-2.13-4.75-4.75v-0.54
        c0-3.97-4.59-6.21-7.69-3.72c-2.76,2.21-5.9,4.09-9.44,5.64c-7.42,3.25-16.21,4.88-26.38,4.88c-14.84,0-26.71-3.58-35.63-10.75
        c-8.92-7.16-13.38-16.58-13.38-28.25c0-11.66,4.25-21.04,12.75-28.13c8.5-7.08,22-10.63,40.5-10.63h33.25
        c2.62,0,4.75-2.13,4.75-4.75l0,0c0-10.33-3-18.25-9-23.75S432.16,304,420.5,304c-7.84,0-15.5,1.29-23,3.88
        c-5.62,1.94-10.59,4.36-14.89,7.28c-2.28,1.55-5.41,0.74-6.75-1.67l-5.34-9.62c-1.17-2.1-0.6-4.78,1.37-6.16
        c6.1-4.27,13.14-7.63,21.12-10.09c9.5-2.91,19.58-4.38,30.25-4.38C441.58,283.25,455.62,287.75,465.37,296.75z M441.5,393.88
        c6.4-3.92,11.11-9.41,14.13-16.48c0.25-0.59,0.37-1.22,0.37-1.86v-12.78c0-2.62-2.13-4.75-4.75-4.75H419
        c-20.34,0-30.5,6.84-30.5,20.5c0,6.67,2.58,11.92,7.75,15.75c5.16,3.84,12.33,5.75,21.5,5.75
        C426.91,400,434.83,397.96,441.5,393.88z"/>
    <path d="M631.96,284.5c3.43,0,5.73,3.53,4.35,6.67L575,430.25c-5.67,13.5-12.29,23-19.88,28.5c-7.59,5.5-16.71,8.25-27.38,8.25
        c-6.5,0-12.79-1.04-18.88-3.13c-4.64-1.59-8.66-3.73-12.09-6.43c-1.82-1.44-2.28-4.02-1.13-6.04l5.55-9.74
        c1.4-2.46,4.61-3.15,6.91-1.49c5.84,4.22,12.39,6.33,19.64,6.33c5.83,0,10.71-1.54,14.63-4.63c3.91-3.09,7.46-8.38,10.63-15.88
        l3.36-7.3c0.57-1.24,0.58-2.66,0.03-3.9L501.7,291.17c-1.39-3.14,0.91-6.67,4.34-6.67h14.59c1.89,0,3.6,1.12,4.35,2.85l40.63,93.12
        c1.66,3.81,7.07,3.8,8.71-0.02l40.17-93.08c0.75-1.74,2.47-2.87,4.36-2.87H631.96z"/>
</g>
</svg>