<?xml version="1.0" encoding="utf-8"?>
<svg version="1.1" id="circleButton" xmlns="http://www.w3.org/2000/svg" xmlns:xlink="http://www.w3.org/1999/xlink" x="0px"
        y="0px" viewBox="0 0 741.02 715.18" enable-background="new 0 0 741.02 715.18" xml:space="preserve">
<g>
    <circle id="buttonPlay_1_" fill="#FFFFFF" cx="366" cy="355.75" r="310.75"/>
    <path id="moveCircle" fill="#3E3E3E" d="M373.34,652C202.38,667.07,68.51,523.33,76,351.87C81.75,220.28,205.67,69.36,377.09,61
        C544.76,52.83,653.14,184.61,666,355.75C678.25,518.83,537.24,637.55,373.34,652z M716.54,352.45c0-69.45,8.34-130.51-56.68-187.8
        C574.79,89.7,555.5-30.34,379,25C263.01,61.37,110.29,55.2,89.2,173.21c-10.78,60.33-59.15,113.85-59.41,179.65
        C29.36,463.13,104.5,608.5,158.5,635.5c63.48,31.74,142.35,56.2,218.79,56.2c54.22,0,113.13-1.43,150.92-35.33
        C632.45,562.86,716.54,485.6,716.54,352.45z"/>
</g>
</svg>